<?xml version="1.0" encoding="UTF-8"?>
<svg id="Layer_1" data-name="Layer 1" xmlns="http://www.w3.org/2000/svg" viewBox="0 0 600.51 404.65">
  <defs>
    <style>
      .cls-1 {
        fill: #3a1721;
      }
    </style>
  </defs>
  <path class="cls-1" d="M577.4,106.05v.11l-18.05,52.99h-28.88c-46.45,0-70.34-23.91-89.6-43.16-16.64-16.63-27.66-27.64-52.11-27.64s-35.46,11.05-52.1,27.64c-8.1,8.09-17.12,17.11-28.4,24.72,41.27,2.55,63.46,24.72,81.62,42.86,16.72,16.63,27.66,27.64,52.22,27.64h99.66l-18.16,53.1h-81.5c-46.52,0-70.45-24.02-89.71-43.16-16.64-16.63-27.66-27.64-52.11-27.64s-35.46,11.05-52.1,27.64c-8.1,8.09-17.12,17.11-28.4,24.72,41.27,2.55,63.46,24.72,81.62,42.86,16.72,16.63,27.66,27.64,52.22,27.64h152.36l-18.05,52.99h-134.31c-46.52,0-70.45-23.91-89.71-43.05-16.64-16.63-27.66-27.64-52.1-27.64s-35.47,11.05-52.11,27.64c-19.27,19.14-43.3,43.05-89.71,43.05H23.11l18.05-52.99h28.81c24.52,0,35.47-11.05,52.22-27.64,8.02-8.02,16.82-16.92,27.77-24.42H58.9l18.05-53.1h81.5c24.52,0,35.47-11.05,52.11-27.64,8.02-8.02,16.94-16.92,27.88-24.42H94.66l18.05-53.06h134.2c24.52,0,35.46-11.05,52.1-27.64,19.27-19.14,43.3-43.16,89.71-43.16s70.34,24.02,89.6,43.16c16.72,16.63,27.66,27.64,52.11,27.64h46.93l.04-.04Z"/>
</svg>